P3
64 64
255
95 75 218 95 75 218 89 80 8 186 205 102 213 29 197 213 29 197 213 29 197 213 29 197 213 29 197 213 29 197 1 191 69 1 191 69 44 18 153 223 134 86 68 58 46 159 130 37 162 126 163 227 234 105 226 141 127 214 114 18 148 0 3 190 238 186 13 159 199 40 242 170 194 130 235 143 203 131 12 193 159 190 107 65 105 57 40 132 131 121 124 70 124 175 35 1 154 185 209 164 215 180 210 205 146 206 232 67 212 221 56 132 52 5 15 73 171 150 245 46 194 201 199 105 247 34 129 30 105 108 153 157 37 182 241 164 175 10 178 39 77 15 191 186 112 102 124 249 158 79 159 85 163 75 44 96 140 253 83 15 154 137 66 174 201 61 41 52 78 109 111 170 24 53 15 56 89 110 117 134 81 36 172 12 42 197 55 4 20 56 243 16 
95 75 218 95 75 218 226 31 5 236 38 208 213 29 197 213 29 197 213 29 197 213 29 197 213 29 197 213 29 197 213 29 197 1 191 69 253 184 156 125 28 88 218 182 54 80 178 219 4 220 94 73 150 116 98 114 144 151 20 199 21 105 126 123 28 83 16 56 49 92 15 154 24 45 120 193 203 145 214 5 164 208 169 137 56 224 113 107 245 109 12 212 234 99 149 31 126 47 72 110 126 179 9 227 207 51 128 127 19 211 17 97 140 181 123 145 11 26 80 214 170 53 123 10 16 52 190 237 166 188 242 66 177 247 22 187 92 91 45 222 15 239 240 13 146 207 250 229 179 181 219 146 111 89 77 52 4 9 134 166 203 15 242 0 200 41 169 118 200 99 237 127 83 49 253 68 46 49 230 247 127 47 225 99 71 73 173 92 232 169 204 159 
95 75 218 95 75 218 42 138 116 143 230 21 253 79 52 213 29 197 213 29 197 213 29 197 213 29 197 213 29 197 213 29 197 5 77 48 174 29 153 64 143 178 42 100 170 13 195 44 203 139 217 207 164 88 17 35 232 38 76 69 67 10 35 167 253 254 146 208 30 107 78 41 237 33 83 161 110 113 198 208 82 86 145 247 145 104 137 189 119 168 239 74 92 73 67 170 251 171 151 190 199 167 100 220 233 164 177 119 82 19 222 120 241 244 191 22 221 189 210 157 117 121 51 248 13 79 91 90 60 79 184 6 106 107 91 19 109 87 120 154 229 39 1 245 31 71 30 27 109 192 35 141 75 239 109 194 157 144 243 187 119 184 89 71 88 77 66 99 54 44 162 158 242 14 166 79 214 175 77 165 117 161 152 25 238 248 27 199 185 96 237 98 
95 75 218 95 75 218 95 75 218 105 109 3 146 4 19 213 29 197 213 29 197 213 29 197 213 29 197 213 29 197 213 29 197 213 29 197 202 132 12 95 190 43 63 47 124 145 174 47 226 120 56 144 219 156 53 173 226 255 179 246 112 94 77 131 165 226 75 156 58 97 195 86 168 167 49 230 17 225 25 249 31 223 19 187 104 185 21 137 152 50 69 167 212 179 64 108 150 224 129 62 114 63 229 206 1 202 192 14 91 31 99 176 24 9 0 238 12 138 88 152 63 141 36 95 67 151 12 254 76 222 255 217 32 6 163 174 25 79 62 44 199 173 245 94 196 156 111 168 160 99 6 196 217 32 62 235 122 138 108 192 173 82 61 8 222 187 235 182 172 19 11 124 163 24 160 43 168 123 162 199 204 248 39 167 68 67 64 50 133 64 50 133 
95 75 218 95 75 218 95 75 218 13 55 174 110 75 218 188 199 187 213 29 197 213 29 197 213 29 197 213 29 197 213 29 197 213 29 197 56 166 228 117 191 94 139 231 16 65 139 207 125 181 211 121 29 146 139 43 153 202 169 216 33 188 48 204 233 138 166 183 38 24 119 66 187 136 30 208 54 249 134 23 85 237 236 80 132 136 230 217 76 246 167 172 160 31 250 125 152 134 69 168 254 96 87 208 59 127 203 231 148 180 31 16 22 82 101 184 164 83 205 170 231 109 183 203 99 205 79 82 142 230 188 22 247 240 210 250 71 4 235 207 163 152 218 77 99 131 85 23 192 15 106 31 41 32 3 222 199 254 112 197 159 20 22 211 125 194 72 5 232 158 147 35 197 115 176 15 81 132 43 143 64 50 133 64 50 133 64 50 133 64 50 133 
95 75 218 95 75 218 95 75 218 148 251 112 11 210 59 43 246 82 213 29 197 213 29 197 213 29 197 213 29 197 213 29 197 213 29 197 213 29 197 87 104 97 103 65 230 247 165 30 148 186 35 43 16 170 126 232 115 250 91 192 26 89 182 23 26 247 20 166 186 162 136 185 113 221 91 215 254 140 33 84 243 195 174 48 9 158 193 145 224 2 94 213 38 157 51 166 11 225 167 34 49 251 28 133 122 10 254 64 194 99 97 235 175 245 37 186 232 112 125 16 245 49 189 227 247 208 145 58 141 86 233 104 217 124 244 185 11 31 154 246 47 43 168 88 201 162 230 161 142 9 56 233 46 174 21 83 248 150 167 90 102 247 44 60 157 122 225 239 107 137 89 234 138 105 103 161 104 64 50 133 64 50 133 64 50 133 64 50 133 64 50 133 
95 75 218 95 75 218 95 75 218 95 75 218 18 81 174 1 191 69 213 29 197 213 29 197 213 29 197 213 29 197 213 29 197 213 29 197 213 29 197 83 174 254 252 118 136 216 79 122 234 78 131 107 230 220 247 52 225 251 206 159 125 150 144 208 135 179 128 129 192 47 192 246 210 93 175 177 170 251 219 119 31 78 200 134 179 168 111 137 108 207 126 10 33 125 220 147 216 184 27 44 185 31 42 191 69 255 15 208 48 109 212 244 244 26 133 233 137 216 8 130 145 46 122 38 228 17 151 193 44 201 155 253 129 46 2 12 108 59 12 161 184 230 71 110 141 204 17 50 131 221 23 211 160 63 179 251 114 252 22 232 42 60 212 150 104 0 146 9 96 41 56 64 50 133 64 50 133 64 50 133 64 50 133 64 50 133 64 50 133 64 50 133 
95 75 218 95 75 218 95 75 218 95 75 218 40 242 123 1 191 69 1 191 69 213 29 197 213 29 197 213 29 197 213 29 197 213 29 197 213 29 197 74 239 244 200 152 118 228 168 236 246 22 52 55 158 206 179 164 56 225 99 163 0 38 226 219 78 34 79 156 180 79 43 190 109 172 169 23 104 233 239 154 149 102 101 137 49 167 164 57 30 255 187 203 187 239 193 227 219 52 19 172 130 251 206 152 248 157 245 65 144 1 235 220 208 9 32 205 21 52 128 175 130 165 111 166 121 50 57 57 162 51 78 18 214 19 251 197 61 244 122 185 58 191 127 49 77 37 44 175 103 19 171 74 237 251 100 51 50 143 54 160 240 31 29 153 152 126 10 215 64 50 133 64 50 133 64 50 133 64 50 133 64 50 133 64 50 133 64 50 133 64 50 133 
95 75 218 95 75 218 95 75 218 95 75 218 154 30 69 1 191 69 1 191 69 213 29 197 213 29 197 213 29 197 213 29 197 213 29 197 213 29 197 213 29 197 59 252 127 247 59 231 3 136 175 184 191 104 248 32 196 119 2 133 184 88 0 43 148 116 144 61 146 170 81 185 45 0 155 133 22 27 133 22 27 133 22 27 133 22 27 48 132 158 43 30 152 146 56 16 7 208 105 119 4 194 215 90 71 56 89 124 145 24 50 229 50 107 86 60 162 232 123 117 159 200 117 74 58 174 241 80 145 89 111 83 215 221 100 165 158 53 18 14 250 132 19 37 185 17 153 249 249 101 146 116 153 238 130 51 21 196 52 166 137 17 64 50 133 64 50 133 64 50 133 64 50 133 64 50 133 64 50 133 64 50 133 64 50 133 64 50 133 64 50 133 
95 75 218 95 75 218 95 75 218 95 75 218 95 75 218 1 191 69 1 191 69 1 191 69 213 29 197 213 29 197 213 29 197 213 29 197 213 29 197 213 29 197 4 187 121 232 93 120 16 222 173 104 165 164 101 171 127 118 10 187 21 180 102 107 100 131 13 208 40 124 207 104 133 22 27 133 22 27 133 22 27 133 22 27 133 22 27 133 22 27 133 22 27 254 31 247 133 25 13 173 211 248 104 16 71 167 184 33 196 135 208 71 170 235 190 114 80 45 253 106 217 40 67 61 88 113 243 50 49 58 147 194 114 217 128 222 209 56 6 143 49 188 52 46 219 35 85 145 228 28 238 169 79 2 179 24 31 64 101 64 50 133 64 50 133 64 50 133 64 50 133 64 50 133 64 50 133 64 50 133 64 50 133 64 50 133 64 50 133 64 50 133 
95 75 218 95 75 218 95 75 218 95 75 218 95 75 218 1 191 69 1 191 69 1 191 69 213 29 197 213 29 197 213 29 197 213 29 197 213 29 197 213 29 197 213 29 197 204 120 180 38 168 203 1 88 31 140 154 34 41 64 0 148 214 22 223 12 225 30 139 90 133 22 27 133 22 27 133 22 27 133 22 27 133 22 27 133 22 27 133 22 27 133 22 27 8 179 140 217 23 120 52 111 32 171 23 250 137 90 57 39 107 177 99 72 1 74 214 127 252 1 190 165 55 128 93 182 171 82 150 22 245 54 134 86 81 113 166 185 219 6 119 148 192 162 20 39 151 86 129 100 140 138 163 190 64 50 133 64 50 133 64 50 133 64 50 133 64 50 133 64 50 133 64 50 133 64 50 133 64 50 133 64 50 133 64 50 133 64 50 133 64 50 133 
95 75 218 95 75 218 95 75 218 95 75 218 1 191 69 1 191 69 1 191 69 1 191 69 1 191 69 213 29 197 213 29 197 213 29 197 213 29 197 213 29 197 218 173 190 218 173 190 218 173 190 218 173 190 218 173 190 218 173 190 218 173 190 218 173 190 133 22 27 133 22 27 133 22 27 133 22 27 133 22 27 133 22 27 133 22 27 133 22 27 133 22 27 133 22 27 41 169 9 3 142 15 129 111 142 82 33 21 160 20 39 155 148 111 99 183 203 84 100 206 58 115 21 93 174 42 55 138 116 103 219 29 24 9 125 178 217 237 54 242 182 26 169 161 19 114 51 70 216 185 64 50 133 64 50 133 64 50 133 64 50 133 64 50 133 64 50 133 64 50 133 64 50 133 64 50 133 64 50 133 64 50 133 64 50 133 117 37 210 212 146 248 
95 75 218 95 75 218 95 75 218 95 75 218 1 191 69 1 191 69 1 191 69 1 191 69 1 191 69 213 29 197 213 29 197 213 29 197 218 173 190 218 173 190 218 173 190 69 156 70 69 156 70 69 156 70 69 156 70 69 156 70 69 156 70 133 22 27 133 22 27 133 22 27 133 22 27 218 173 190 218 173 190 218 173 190 242 92 69 133 22 27 133 22 27 133 22 27 71 104 105 110 52 249 235 70 132 173 6 193 239 4 68 115 41 75 159 59 3 114 240 122 248 149 209 84 219 191 101 5 204 137 148 199 100 244 193 218 23 211 166 112 231 206 251 200 64 50 133 64 50 133 64 50 133 64 50 133 64 50 133 64 50 133 64 50 133 64 50 133 64 50 133 64 50 133 64 50 133 64 50 133 64 50 133 249 177 188 187 140 14 134 48 97 
95 75 218 95 75 218 95 75 218 95 75 218 1 191 69 1 191 69 1 191 69 1 191 69 1 191 69 213 29 197 218 173 190 69 156 70 69 156 70 69 156 70 69 156 70 69 156 70 69 156 70 69 156 70 69 156 70 69 156 70 69 156 70 133 22 27 133 22 27 133 22 27 69 156 70 218 173 190 218 173 190 218 173 190 218 173 190 133 22 27 133 22 27 133 22 27 177 38 4 179 49 118 19 51 142 170 66 200 134 89 253 49 234 9 23 232 41 244 123 173 114 122 136 12 68 0 115 71 194 114 158 242 32 17 48 137 64 216 223 89 69 64 50 133 64 50 133 64 50 133 64 50 133 64 50 133 64 50 133 64 50 133 64 50 133 64 50 133 64 50 133 64 50 133 64 50 133 105 26 22 244 98 115 158 58 102 35 129 233 244 229 219 
95 75 218 95 75 218 95 75 218 95 75 218 1 191 69 1 191 69 1 191 69 1 191 69 69 156 70 69 156 70 69 156 70 69 156 70 69 156 70 69 156 70 69 156 70 69 156 70 69 156 70 69 156 70 69 156 70 69 156 70 69 156 70 133 22 27 133 22 27 133 22 27 69 156 70 69 156 70 69 156 70 218 173 190 218 173 190 133 22 27 133 22 27 133 22 27 55 137 62 235 217 67 155 191 147 47 115 169 8 5 111 233 80 98 118 251 55 146 210 169 33 122 152 149 27 55 182 237 77 124 120 110 194 86 57 64 50 133 64 50 133 64 50 133 64 50 133 64 50 133 64 50 133 64 50 133 64 50 133 64 50 133 64 50 133 64 50 133 64 50 133 64 50 133 90 185 192 43 197 235 110 222 46 218 206 230 176 230 34 255 214 52 
111 68 254 95 75 218 95 75 218 1 191 69 1 191 69 1 191 69 69 156 70 69 156 70 69 156 70 69 156 70 69 156 70 69 156 70 69 156 70 69 156 70 69 156 70 69 156 70 69 156 70 69 156 70 69 156 70 69 156 70 69 156 70 133 22 27 133 22 27 133 22 27 69 156 70 69 156 70 69 156 70 69 156 70 69 156 70 133 22 27 133 22 27 133 22 27 218 173 190 163 204 137 230 221 220 128 52 230 52 229 249 162 85 98 19 72 34 51 177 80 189 118 2 91 212 142 243 28 1 213 115 239 64 50 133 64 50 133 64 50 133 64 50 133 64 50 133 64 50 133 64 50 133 64 50 133 64 50 133 64 50 133 64 50 133 64 50 133 224 208 182 50 29 10 96 207 172 57 245 127 160 166 176 161 207 187 152 230 194 93 53 97 
227 106 224 95 75 218 95 75 218 1 191 69 1 191 69 69 156 70 69 156 70 69 156 70 69 156 70 69 156 70 69 156 70 69 156 70 69 156 70 69 156 70 69 156 70 69 156 70 69 156 70 69 156 70 69 156 70 69 156 70 69 156 70 133 22 27 133 22 27 133 22 27 69 156 70 69 156 70 69 156 70 69 156 70 133 22 27 133 22 27 133 22 27 133 22 27 218 173 190 218 173 190 44 154 183 136 109 220 249 43 71 190 12 127 36 20 53 49 35 210 57 35 108 59 78 111 64 50 133 64 50 133 64 50 133 64 50 133 64 50 133 64 50 133 64 50 133 64 50 133 64 50 133 64 50 133 64 50 133 64 50 133 64 50 133 141 13 157 213 45 141 22 249 154 113 214 39 223 78 134 203 225 35 121 225 73 47 29 204 158 217 108 
15 131 249 95 75 218 95 75 218 69 156 70 69 156 70 69 156 70 69 156 70 69 156 70 69 156 70 69 156 70 69 156 70 69 156 70 69 156 70 69 156 70 218 173 190 213 29 197 213 29 197 213 29 197 108 31 9 137 146 253 69 156 70 133 22 27 133 22 27 133 22 27 133 22 27 133 22 27 133 22 27 133 22 27 133 22 27 133 22 27 133 22 27 218 173 190 218 173 190 218 173 190 81 143 9 223 3 251 231 75 108 24 176 125 242 210 202 16 248 161 239 226 46 64 50 133 64 50 133 64 50 133 64 50 133 64 50 133 64 50 133 64 50 133 64 50 133 64 50 133 64 50 133 64 50 133 64 50 133 169 152 166 165 39 191 27 30 141 11 146 215 54 97 230 155 198 3 169 141 91 175 113 89 10 181 229 43 105 74 158 158 133 
238 151 211 60 52 29 69 156 70 69 156 70 69 156 70 69 156 70 69 156 70 69 156 70 69 156 70 69 156 70 69 156 70 218 173 190 218 173 190 218 173 190 218 173 190 213 29 197 213 29 197 213 29 197 165 200 63 129 158 53 75 165 83 72 49 166 133 22 27 133 22 27 133 22 27 133 22 27 133 22 27 133 22 27 133 22 27 133 22 27 69 156 70 69 156 70 218 173 190 218 173 190 218 173 190 113 83 217 57 247 192 50 246 10 174 82 198 135 64 16 64 50 133 64 50 133 64 50 133 64 50 133 64 50 133 64 50 133 64 50 133 64 50 133 64 50 133 64 50 133 64 50 133 64 50 133 191 176 206 136 236 12 237 32 165 133 132 138 83 140 205 104 42 246 184 153 130 150 157 239 139 20 138 171 89 179 142 45 212 136 82 71 
108 49 111 69 156 70 69 156 70 69 156 70 69 156 70 69 156 70 69 156 70 69 156 70 69 156 70 218 173 190 218 173 190 218 173 190 218 173 190 218 173 190 218 173 190 218 173 190 213 29 197 213 29 197 213 29 197 42 14 179 255 221 136 247 37 156 133 22 27 133 22 27 133 22 27 133 22 27 133 22 27 133 22 27 133 22 27 69 156 70 69 156 70 69 156 70 218 173 190 218 173 190 218 173 190 79 219 160 150 153 40 46 60 87 64 50 133 64 50 133 64 50 133 64 50 133 64 50 133 64 50 133 64 50 133 64 50 133 64 50 133 64 50 133 64 50 133 64 50 133 180 202 21 163 130 61 225 98 239 194 45 160 107 152 176 118 229 150 148 111 1 172 224 240 7 12 155 15 96 121 154 1 141 241 29 90 197 152 101 13 15 26 
69 156 70 69 156 70 69 156 70 69 156 70 69 156 70 69 156 70 69 156 70 69 156 70 95 75 218 218 173 190 218 173 190 218 173 190 218 173 190 218 173 190 218 173 190 218 173 190 218 173 190 213 29 197 213 29 197 98 139 174 252 204 210 93 82 245 145 62 24 63 209 30 133 22 27 133 22 27 133 22 27 133 22 27 69 156 70 69 156 70 69 156 70 69 156 70 69 156 70 218 173 190 218 173 190 98 167 162 196 48 51 64 50 133 64 50 133 64 50 133 64 50 133 64 50 133 64 50 133 64 50 133 64 50 133 64 50 133 64 50 133 64 50 133 64 50 133 76 101 16 190 235 42 199 65 234 79 104 232 54 96 182 126 171 80 245 124 219 235 21 119 235 21 119 235 21 119 235 21 119 235 21 119 235 21 119 235 21 119 36 70 116 
69 156 70 69 156 70 69 156 70 69 156 70 69 156 70 69 156 70 69 156 70 95 75 218 95 75 218 214 123 152 218 173 190 218 173 190 218 173 190 218 173 190 218 173 190 218 173 190 218 173 190 218 173 190 218 173 190 225 235 112 173 128 180 79 50 44 10 85 57 247 42 96 68 183 122 108 204 155 69 156 70 69 156 70 69 156 70 69 156 70 69 156 70 69 156 70 69 156 70 218 173 190 255 78 27 64 50 133 64 50 133 64 50 133 64 50 133 64 50 133 64 50 133 64 50 133 64 50 133 64 50 133 64 50 133 64 50 133 64 50 133 64 50 133 15 237 168 250 130 13 4 195 68 101 164 227 129 128 198 206 163 153 235 21 119 235 21 119 235 21 119 235 21 119 235 21 119 235 21 119 235 21 119 235 21 119 235 21 119 235 21 119 
69 156 70 69 156 70 69 156 70 69 156 70 69 156 70 69 156 70 1 191 69 95 75 218 95 75 218 95 75 218 164 79 144 218 173 190 218 173 190 218 173 190 218 173 190 218 173 190 218 173 190 218 173 190 218 173 190 218 173 190 218 173 190 218 173 190 218 173 190 218 173 190 218 173 190 218 173 190 218 173 190 69 156 70 69 156 70 69 156 70 69 156 70 69 156 70 69 156 70 218 173 190 64 50 133 64 50 133 64 50 133 64 50 133 64 50 133 64 50 133 64 50 133 64 50 133 64 50 133 64 50 133 64 50 133 64 50 133 225 168 210 251 101 18 231 210 138 2 225 46 119 13 209 86 83 141 188 248 252 235 21 119 235 21 119 235 21 119 235 21 119 235 21 119 235 21 119 235 21 119 235 21 119 235 21 119 235 21 119 235 21 119 
69 156 70 69 156 70 69 156 70 69 156 70 69 156 70 1 191 69 1 191 69 95 75 218 95 75 218 95 75 218 116 105 248 53 50 51 145 238 22 218 173 190 218 173 190 218 173 190 218 173 190 218 173 190 218 173 190 218 173 190 218 173 190 218 173 190 218 173 190 218 173 190 218 173 190 218 173 190 218 173 190 69 156 70 69 156 70 69 156 70 69 156 70 69 156 70 69 156 70 69 156 70 64 50 133 64 50 133 64 50 133 64 50 133 64 50 133 64 50 133 64 50 133 64 50 133 64 50 133 64 50 133 64 50 133 117 136 35 0 38 82 130 182 52 79 20 152 5 113 176 151 238 255 63 81 15 235 21 119 235 21 119 235 21 119 235 21 119 235 21 119 235 21 119 235 21 119 32 127 255 235 21 119 235 21 119 235 21 119 235 21 119 
69 156 70 69 156 70 69 156 70 69 156 70 69 156 70 1 191 69 1 191 69 95 75 218 95 75 218 95 75 218 253 87 133 209 31 7 21 161 109 103 168 166 213 29 197 218 173 190 218 173 190 218 173 190 218 173 190 218 173 190 218 173 190 218 173 190 218 173 190 218 173 190 218 173 190 218 173 190 218 173 190 69 156 70 69 156 70 69 156 70 69 156 70 69 156 70 69 156 70 69 156 70 64 50 133 64 50 133 64 50 133 64 50 133 64 50 133 64 50 133 64 50 133 64 50 133 64 50 133 4 126 235 102 198 217 251 48 135 193 67 224 161 4 251 128 43 25 90 9 67 169 84 67 235 21 119 235 21 119 235 21 119 235 21 119 235 21 119 195 44 13 106 151 53 17 58 201 112 175 119 143 222 199 184 55 147 108 87 164 235 21 119 
69 156 70 69 156 70 69 156 70 69 156 70 1 191 69 1 191 69 95 75 218 95 75 218 95 75 218 95 75 218 95 75 218 213 253 32 201 119 37 73 197 132 185 159 16 213 29 197 213 29 197 213 29 197 218 173 190 218 173 190 218 173 190 218 173 190 218 173 190 218 173 190 218 173 190 218 173 190 218 173 190 69 156 70 69 156 70 69 156 70 69 156 70 69 156 70 69 156 70 69 156 70 64 50 133 64 50 133 64 50 133 64 50 133 64 50 133 64 50 133 64 50 133 64 50 133 128 134 158 201 206 73 24 224 238 245 211 249 77 123 234 224 249 118 86 77 143 76 37 198 203 167 220 235 21 119 235 21 119 235 21 119 235 21 119 55 90 79 176 35 144 28 94 111 220 59 100 85 77 91 51 146 31 76 4 235 118 94 170 233 235 236 
69 156 70 69 156 70 69 156 70 69 156 70 1 191 69 1 191 69 95 75 218 95 75 218 95 75 218 95 75 218 95 75 218 131 139 214 179 140 153 162 62 191 233 219 70 213 29 197 213 29 197 213 29 197 213 29 197 213 29 197 213 29 197 213 29 197 26 136 116 145 56 155 2 203 121 78 134 201 66 68 158 69 156 70 69 156 70 69 156 70 69 156 70 69 156 70 69 156 70 64 50 133 64 50 133 64 50 133 64 50 133 64 50 133 64 50 133 64 50 133 112 1 25 111 119 73 248 96 208 204 48 74 78 112 121 57 77 219 213 210 108 201 12 243 245 144 75 3 159 185 235 21 119 235 21 119 235 21 119 235 21 119 204 155 151 155 201 179 224 246 86 90 49 163 196 172 224 148 56 107 87 247 216 129 57 222 231 91 34 132 190 17 
69 156 70 69 156 70 69 156 70 69 156 70 1 191 69 1 191 69 95 75 218 95 75 218 95 75 218 95 75 218 95 75 218 172 16 90 157 190 66 96 253 169 53 6 53 114 6 30 213 29 197 213 29 197 213 29 197 213 29 197 213 29 197 213 29 197 5 204 126 234 240 104 213 53 212 84 32 102 48 249 240 69 156 70 69 156 70 69 156 70 69 156 70 69 156 70 69 156 70 64 50 133 64 50 133 64 50 133 64 50 133 64 50 133 64 50 133 52 193 95 200 240 69 188 99 89 223 51 79 208 136 75 45 8 45 225 227 189 239 147 220 27 198 238 56 91 80 245 156 109 235 21 119 235 21 119 235 21 119 235 21 119 163 60 252 123 252 105 166 39 106 85 101 77 73 127 34 230 31 206 181 145 69 21 168 128 188 66 13 206 21 10 
69 156 70 69 156 70 69 156 70 69 156 70 1 191 69 95 75 218 95 75 218 95 75 218 95 75 218 95 75 218 95 75 218 95 75 218 235 85 108 155 191 81 153 133 130 95 68 52 213 29 197 213 29 197 213 29 197 213 29 197 213 29 197 213 29 197 213 29 197 95 119 65 47 43 98 70 18 45 69 156 70 69 156 70 69 156 70 69 156 70 69 156 70 69 156 70 69 156 70 64 50 133 64 50 133 64 50 133 64 50 133 64 50 133 45 223 13 187 129 7 141 250 253 15 80 95 234 178 197 45 56 150 25 162 116 150 67 75 165 156 62 137 149 102 52 12 113 187 52 67 235 21 119 235 21 119 235 21 119 235 21 119 107 246 166 191 179 102 154 208 204 89 227 211 246 67 186 30 74 179 167 220 199 85 234 101 57 222 206 193 116 128 
69 156 70 69 156 70 69 156 70 69 156 70 1 191 69 208 129 99 95 75 218 95 75 218 95 75 218 95 75 218 95 75 218 95 75 218 184 145 176 231 88 149 138 225 65 106 136 206 213 29 197 213 29 197 213 29 197 213 29 197 213 29 197 213 29 197 213 29 197 70 106 170 64 50 133 64 50 133 69 156 70 69 156 70 69 156 70 69 156 70 69 156 70 69 156 70 64 50 133 64 50 133 64 50 133 64 50 133 33 196 64 147 231 151 48 64 198 108 209 224 192 19 4 48 142 115 209 23 241 213 147 129 132 193 109 224 236 113 98 208 149 31 43 235 22 207 43 119 100 148 235 21 119 235 21 119 235 21 119 199 137 166 9 189 211 36 247 207 215 3 70 196 165 44 190 47 5 17 151 217 72 101 130 154 79 209 206 186 171 178 58 239 
69 156 70 69 156 70 69 156 70 69 156 70 1 191 69 163 103 154 95 75 218 95 75 218 95 75 218 95 75 218 95 75 218 95 75 218 1 168 27 217 49 169 75 74 5 75 209 200 120 219 106 213 29 197 213 29 197 213 29 197 213 29 197 213 29 197 213 29 197 64 50 133 64 50 133 69 156 70 69 156 70 69 156 70 69 156 70 69 156 70 69 156 70 69 156 70 64 50 133 64 50 133 64 50 133 199 38 30 52 20 129 15 106 177 166 147 152 193 155 251 55 37 111 244 206 130 249 227 202 190 98 178 160 187 50 161 35 90 91 126 201 190 127 111 56 14 243 17 195 155 235 21 119 235 21 119 235 21 119 235 21 119 78 222 110 100 175 201 107 201 43 169 218 160 132 53 244 73 144 27 64 60 151 64 234 245 146 208 233 149 12 185 
69 156 70 69 156 70 69 156 70 69 156 70 69 156 70 92 91 43 95 75 218 95 75 218 95 75 218 95 75 218 95 75 218 95 75 218 95 75 218 238 199 68 78 83 137 214 112 190 27 41 150 213 29 197 213 29 197 213 29 197 213 29 197 213 29 197 213 29 197 213 29 197 69 156 70 69 156 70 69 156 70 69 156 70 69 156 70 69 156 70 69 156 70 64 50 133 64 50 133 206 255 63 237 210 170 145 229 84 104 7 161 210 35 9 142 155 112 230 89 73 55 91 139 210 159 117 254 150 21 138 132 172 6 214 105 51 214 241 185 134 59 40 42 14 16 63 241 226 201 61 235 21 119 235 21 119 235 21 119 235 21 119 16 244 241 69 198 141 221 137 0 10 116 226 18 156 170 74 16 196 103 34 135 186 161 147 22 50 194 98 123 115 
69 156 70 69 156 70 69 156 70 69 156 70 69 156 70 20 199 11 74 155 201 95 75 218 95 75 218 95 75 218 95 75 218 95 75 218 95 75 218 136 137 218 227 149 144 240 42 243 226 202 30 7 68 192 213 29 197 213 29 197 213 29 197 213 29 197 213 29 197 69 156 70 69 156 70 69 156 70 69 156 70 69 156 70 69 156 70 69 156 70 69 156 70 64 50 133 55 240 106 74 248 50 84 44 221 87 73 101 231 232 234 37 136 190 157 25 151 21 66 31 116 169 194 174 233 179 0 74 7 127 223 74 127 55 97 205 50 13 154 229 188 53 30 150 126 58 7 116 173 37 235 21 119 235 21 119 235 21 119 235 21 119 214 202 214 184 4 147 193 168 139 207 15 68 82 91 45 40 128 27 202 174 27 14 37 155 170 222 101 64 105 162 
69 156 70 69 156 70 69 156 70 69 156 70 69 156 70 69 156 70 69 156 70 95 75 218 95 75 218 95 75 218 95 75 218 95 75 218 95 75 218 95 75 218 137 88 18 148 34 35 10 78 253 163 182 141 213 29 197 213 29 197 213 29 197 213 29 197 69 156 70 69 156 70 69 156 70 69 156 70 69 156 70 69 156 70 69 156 70 69 156 70 64 50 133 244 22 103 210 85 28 145 188 248 128 51 63 6 230 165 54 244 57 109 43 174 75 12 21 250 167 118 144 8 220 243 126 203 60 87 107 210 213 72 92 211 48 244 13 99 130 237 64 172 158 64 193 76 106 211 93 206 209 171 80 235 21 119 235 21 119 235 21 119 235 21 119 239 92 107 103 240 26 180 31 147 2 57 141 149 201 99 173 189 149 205 222 37 229 80 171 104 95 86 
69 156 70 69 156 70 69 156 70 69 156 70 69 156 70 69 156 70 69 156 70 69 156 70 95 75 218 95 75 218 95 75 218 95 75 218 95 75 218 95 75 218 240 163 107 232 110 8 102 236 86 64 50 133 64 50 133 213 29 197 69 156 70 69 156 70 69 156 70 69 156 70 69 156 70 69 156 70 69 156 70 69 156 70 69 156 70 0 45 101 119 9 35 161 253 81 181 154 22 135 121 128 127 211 5 177 234 223 162 6 197 182 91 81 178 46 169 77 174 37 246 53 172 226 25 111 182 146 10 36 48 171 231 195 208 255 132 202 176 217 52 235 180 245 145 107 137 233 192 97 12 157 193 235 21 119 235 21 119 235 21 119 235 21 119 235 21 119 36 177 57 27 46 219 165 156 72 40 82 195 27 136 94 235 130 126 208 98 141 235 21 119 
69 156 70 69 156 70 69 156 70 69 156 70 69 156 70 69 156 70 69 156 70 69 156 70 69 156 70 69 156 70 69 156 70 95 75 218 95 75 218 95 75 218 187 56 118 254 99 148 64 50 133 69 156 70 69 156 70 69 156 70 69 156 70 69 156 70 69 156 70 69 156 70 69 156 70 69 156 70 69 156 70 69 156 70 99 35 246 93 78 142 172 212 92 244 126 124 157 185 146 242 218 252 157 136 119 245 206 53 175 92 92 247 133 167 254 10 176 198 135 161 81 103 252 236 25 55 107 201 73 187 239 144 253 173 144 127 183 82 172 92 5 191 15 110 98 36 43 170 180 12 67 218 109 168 191 126 235 21 119 235 21 119 235 21 119 235 21 119 235 21 119 235 21 119 235 21 119 161 24 252 235 21 119 235 21 119 235 21 119 235 21 119 
1 191 69 69 156 70 69 156 70 69 156 70 69 156 70 69 156 70 69 156 70 69 156 70 69 156 70 69 156 70 69 156 70 69 156 70 69 156 70 69 156 70 69 156 70 69 156 70 69 156 70 69 156 70 69 156 70 69 156 70 69 156 70 69 156 70 69 156 70 69 156 70 69 156 70 69 156 70 185 20 89 221 186 15 25 93 50 212 86 92 70 29 77 8 94 165 197 195 73 97 232 188 182 228 190 177 134 20 195 97 78 246 157 237 204 96 29 80 16 118 213 56 36 50 158 11 246 54 231 162 200 47 71 32 31 240 252 243 56 125 21 124 95 186 240 100 141 179 68 115 51 220 158 152 65 11 159 66 160 235 21 119 235 21 119 235 21 119 235 21 119 235 21 119 235 21 119 235 21 119 235 21 119 235 21 119 235 21 119 235 21 119 
1 191 69 1 191 69 69 156 70 69 156 70 69 156 70 69 156 70 69 156 70 69 156 70 69 156 70 69 156 70 69 156 70 69 156 70 69 156 70 69 156 70 69 156 70 69 156 70 69 156 70 69 156 70 69 156 70 69 156 70 69 156 70 69 156 70 69 156 70 69 156 70 69 156 70 213 29 197 213 29 197 104 93 119 92 250 40 108 240 141 237 7 178 196 172 40 251 214 128 190 159 233 129 49 123 165 16 2 216 124 24 54 11 76 21 131 248 157 223 234 162 121 132 0 234 239 241 249 253 151 68 36 118 84 99 3 53 106 252 86 132 39 247 173 115 83 235 230 7 230 36 161 3 216 168 231 86 193 231 94 198 18 235 21 119 235 21 119 235 21 119 235 21 119 235 21 119 235 21 119 235 21 119 235 21 119 235 21 119 235 21 119 
146 38 235 146 38 235 146 38 235 202 177 47 69 156 70 69 156 70 69 156 70 69 156 70 69 156 70 69 156 70 69 156 70 69 156 70 69 156 70 69 156 70 69 156 70 69 156 70 69 156 70 69 156 70 69 156 70 69 156 70 69 156 70 69 156 70 69 156 70 213 29 197 213 29 197 213 29 197 213 29 197 160 183 2 171 253 183 213 229 65 254 129 209 98 112 36 106 204 225 31 153 47 235 241 52 58 116 62 132 221 199 231 184 194 205 148 186 190 115 9 120 196 250 216 3 149 204 220 224 201 70 181 68 203 143 142 190 189 85 55 9 125 59 209 83 212 53 107 168 117 221 7 43 92 166 27 23 255 176 61 168 118 75 53 77 190 21 245 235 21 119 235 21 119 235 21 119 235 21 119 235 21 119 235 21 119 235 21 119 144 228 172 
146 38 235 146 38 235 146 38 235 146 38 235 146 38 235 81 152 140 69 156 70 69 156 70 69 156 70 69 156 70 69 156 70 69 156 70 69 156 70 69 156 70 69 156 70 69 156 70 69 156 70 69 156 70 69 156 70 69 156 70 64 50 133 213 29 197 213 29 197 213 29 197 213 29 197 213 29 197 213 29 197 213 29 197 151 240 48 163 73 117 28 22 125 131 175 223 172 79 95 57 234 35 96 86 175 228 240 114 199 106 129 255 86 247 100 147 132 241 174 216 124 167 96 89 129 169 16 64 42 197 13 200 197 13 200 197 13 200 197 13 200 197 13 200 197 13 200 197 13 200 232 33 167 35 56 232 1 113 97 187 72 238 125 132 238 42 120 80 168 42 44 224 199 46 226 182 158 0 23 178 74 17 33 221 78 44 188 235 97 18 253 160 
146 38 235 146 38 235 146 38 235 146 38 235 146 38 235 146 38 235 146 38 235 146 38 235 146 38 235 64 50 133 69 156 70 69 156 70 69 156 70 69 156 70 69 156 70 69 156 70 64 50 133 64 50 133 64 50 133 64 50 133 64 50 133 115 107 254 213 29 197 213 29 197 213 29 197 213 29 197 213 29 197 213 29 197 29 79 59 228 69 255 96 215 55 211 217 97 243 83 172 18 209 148 228 85 35 216 4 217 53 49 39 38 151 184 132 187 108 207 178 134 130 47 254 197 13 200 197 13 200 197 13 200 197 13 200 197 13 200 197 13 200 197 13 200 197 13 200 197 13 200 197 13 200 197 13 200 71 6 157 195 129 141 54 166 92 250 30 157 115 4 194 4 233 87 149 230 50 29 72 239 19 79 36 26 142 157 92 93 72 78 215 170 
146 38 235 146 38 235 146 38 235 146 38 235 146 38 235 146 38 235 146 38 235 146 38 235 146 38 235 146 38 235 146 38 235 146 38 235 146 38 235 64 50 133 64 50 133 64 50 133 64 50 133 64 50 133 64 50 133 64 50 133 1 85 40 239 129 199 213 29 197 213 29 197 213 29 197 213 29 197 213 29 197 213 29 197 213 29 197 230 189 201 102 163 20 232 221 53 77 24 196 73 4 72 15 178 45 172 31 3 65 168 81 177 239 204 156 66 243 231 47 179 197 13 200 197 13 200 197 13 200 197 13 200 197 13 200 197 13 200 197 13 200 197 13 200 197 13 200 197 13 200 197 13 200 197 13 200 197 13 200 81 110 177 198 203 15 115 192 80 69 185 12 228 189 94 14 14 73 232 3 169 207 96 181 207 160 53 21 173 192 106 255 236 
146 38 235 146 38 235 146 38 235 146 38 235 146 38 235 146 38 235 146 38 235 146 38 235 146 38 235 146 38 235 146 38 235 146 38 235 146 38 235 146 38 235 146 38 235 146 38 235 64 50 133 64 50 133 36 105 161 37 139 142 104 105 184 13 77 21 6 1 122 213 29 197 213 29 197 213 29 197 213 29 197 213 29 197 213 29 197 107 12 96 116 247 245 122 106 108 138 144 183 90 38 70 164 146 26 136 205 170 133 146 115 127 165 90 193 211 55 4 158 3 197 13 200 197 13 200 197 13 200 197 13 200 93 81 246 4 3 165 116 193 60 243 93 101 184 172 19 197 13 200 197 13 200 197 13 200 197 13 200 113 255 195 143 60 214 89 157 48 141 147 245 247 224 5 99 208 5 54 163 5 82 154 146 169 103 192 54 2 5 88 169 173 
43 13 216 10 228 31 146 38 235 146 38 235 146 38 235 146 38 235 146 38 235 146 38 235 146 38 235 146 38 235 146 38 235 146 38 235 146 38 235 146 38 235 146 38 235 146 38 235 146 38 235 146 38 235 146 38 235 193 133 138 90 31 16 127 76 3 245 122 72 213 29 197 213 29 197 213 29 197 213 29 197 213 29 197 213 29 197 213 29 197 56 93 66 213 171 244 232 125 51 142 225 17 108 121 181 253 229 247 246 52 176 60 150 125 203 96 251 197 13 200 197 13 200 197 13 200 197 13 200 156 199 95 83 138 237 29 117 213 202 43 211 245 221 240 229 115 144 59 247 229 197 13 200 197 13 200 197 13 200 197 13 200 225 88 230 237 194 227 34 18 96 139 167 15 125 245 53 249 188 16 15 250 73 211 38 152 213 114 206 100 10 121 
59 208 255 219 118 85 77 172 246 83 0 163 64 50 133 64 50 133 146 38 235 146 38 235 146 38 235 146 38 235 146 38 235 146 38 235 146 38 235 146 38 235 146 38 235 146 38 235 146 38 235 146 38 235 146 38 235 146 38 235 146 38 235 247 61 134 164 76 177 244 30 32 213 29 197 213 29 197 213 29 197 213 29 197 213 29 197 213 29 197 206 28 118 35 11 37 225 102 69 80 41 7 233 146 230 18 189 218 68 178 204 118 206 174 59 14 235 197 13 200 197 13 200 197 13 200 82 120 61 213 2 104 122 72 166 180 199 155 153 46 231 51 71 159 181 189 59 144 129 4 254 0 149 197 13 200 197 13 200 197 13 200 202 213 180 133 146 93 162 228 109 166 37 2 121 205 33 180 197 13 239 245 97 155 90 20 6 155 170 18 77 186 
50 104 164 181 228 32 64 50 133 64 50 133 64 50 133 64 50 133 64 50 133 64 50 133 64 50 133 64 50 133 146 38 235 146 38 235 146 38 235 146 38 235 146 38 235 146 38 235 146 38 235 146 38 235 146 38 235 146 38 235 146 38 235 146 38 235 146 38 235 99 23 118 213 29 197 213 29 197 213 29 197 213 29 197 213 29 197 213 29 197 213 29 197 82 176 202 56 59 135 42 131 198 249 118 173 209 118 143 107 233 185 196 26 8 209 110 208 197 13 200 197 13 200 197 13 200 192 207 171 240 229 206 115 90 191 61 53 246 249 52 249 152 121 136 90 218 128 109 209 237 241 112 89 197 13 200 197 13 200 197 13 200 140 237 192 204 222 239 246 165 212 133 21 235 172 130 116 239 52 69 110 103 11 198 139 111 83 40 103 112 150 242 
187 73 161 64 50 133 64 50 133 64 50 133 64 50 133 64 50 133 64 50 133 64 50 133 64 50 133 64 50 133 64 50 133 64 50 133 64 50 133 146 38 235 146 38 235 146 38 235 146 38 235 146 38 235 146 38 235 146 38 235 146 38 235 146 38 235 146 38 235 146 38 235 120 248 203 213 29 197 213 29 197 213 29 197 213 29 197 213 29 197 213 29 197 95 167 117 140 55 241 60 3 212 102 200 56 142 57 39 217 43 166 158 165 21 168 84 18 197 13 200 197 13 200 197 13 200 162 252 162 165 25 224 1 22 53 135 49 98 76 62 147 130 60 201 72 22 31 158 107 131 23 208 140 197 13 200 197 13 200 197 13 200 249 42 167 127 42 131 122 23 101 29 161 56 124 166 172 108 164 173 255 214 255 15 239 203 175 73 21 116 141 97 
64 50 133 64 50 133 64 50 133 64 50 133 64 50 133 64 50 133 64 50 133 64 50 133 64 50 133 64 50 133 64 50 133 21 208 219 95 75 218 95 75 218 95 75 218 146 38 235 146 38 235 146 38 235 146 38 235 146 38 235 146 38 235 146 38 235 146 38 235 146 38 235 146 38 235 213 29 197 213 29 197 213 29 197 213 29 197 213 29 197 213 29 197 213 29 197 112 83 139 55 12 59 205 28 109 110 125 19 236 146 19 236 124 48 33 132 228 197 13 200 197 13 200 197 13 200 149 20 49 159 162 163 4 255 13 54 208 231 106 147 179 171 249 70 26 131 222 233 86 176 105 224 81 197 13 200 197 13 200 197 13 200 240 124 193 253 129 153 52 165 95 190 37 169 101 222 197 212 51 50 43 172 179 33 208 228 121 145 219 38 145 220 
64 50 133 64 50 133 64 50 133 64 50 133 64 50 133 64 50 133 64 50 133 64 50 133 64 50 133 64 50 133 2 251 253 143 140 44 0 180 218 95 75 218 95 75 218 95 75 218 95 75 218 146 38 235 146 38 235 146 38 235 146 38 235 146 38 235 146 38 235 146 38 235 146 38 235 146 38 235 213 29 197 213 29 197 213 29 197 213 29 197 213 29 197 213 29 197 43 52 124 226 136 133 154 40 29 113 206 234 46 214 71 234 227 224 7 107 237 197 13 200 197 13 200 197 13 200 167 190 2 226 182 249 10 100 90 33 93 113 22 94 96 51 18 122 11 234 132 130 13 125 61 248 66 197 13 200 197 13 200 197 13 200 89 149 28 95 66 214 113 213 78 105 35 8 5 162 102 183 251 145 4 69 116 167 252 166 10 51 64 161 247 167 
64 50 133 64 50 133 64 50 133 64 50 133 64 50 133 64 50 133 64 50 133 64 50 133 64 50 133 111 138 57 192 99 123 75 11 76 128 213 123 95 75 218 95 75 218 95 75 218 95 75 218 95 75 218 95 75 218 146 38 235 146 38 235 146 38 235 146 38 235 146 38 235 146 38 235 146 38 235 213 29 197 213 29 197 213 29 197 213 29 197 213 29 197 213 29 197 213 29 197 194 211 32 203 226 8 213 89 0 202 133 186 249 142 191 140 166 92 197 13 200 197 13 200 197 13 200 197 13 200 55 181 162 77 143 238 40 115 149 104 255 53 77 81 48 243 108 34 111 137 221 197 13 200 197 13 200 197 13 200 197 13 200 51 20 119 192 249 183 119 71 25 252 74 195 79 104 202 47 3 173 92 135 49 130 70 143 109 238 146 126 66 82 
64 50 133 64 50 133 64 50 133 64 50 133 64 50 133 64 50 133 64 50 133 254 151 199 92 103 246 237 52 103 171 166 240 43 158 172 81 15 134 95 75 218 95 75 218 95 75 218 95 75 218 95 75 218 95 75 218 95 75 218 146 38 235 146 38 235 146 38 235 146 38 235 146 38 235 146 38 235 146 38 235 213 29 197 213 29 197 213 29 197 213 29 197 213 29 197 213 29 197 213 29 197 115 53 42 123 37 123 237 80 49 239 85 169 109 79 199 116 4 93 197 13 200 197 13 200 197 13 200 197 13 200 163 193 213 184 146 162 6 44 118 15 236 149 33 93 121 197 13 200 197 13 200 197 13 200 197 13 200 33 178 209 81 114 74 7 217 23 243 151 205 87 212 103 236 143 178 119 226 210 220 183 48 128 120 75 15 43 84 191 209 15 
64 50 133 64 50 133 64 50 133 64 50 133 64 50 133 64 50 133 101 87 107 130 171 127 178 37 104 153 68 230 233 247 199 2 85 50 241 159 217 224 39 206 95 75 218 95 75 218 95 75 218 95 75 218 95 75 218 95 75 218 199 219 131 146 38 235 146 38 235 146 38 235 146 38 235 146 38 235 146 38 235 213 29 197 213 29 197 213 29 197 213 29 197 213 29 197 213 29 197 213 29 197 55 231 41 191 99 192 245 203 191 225 208 215 64 204 36 55 170 193 197 13 200 197 13 200 197 13 200 197 13 200 197 13 200 197 13 200 197 13 200 197 13 200 197 13 200 197 13 200 197 13 200 197 13 200 197 13 200 104 126 103 41 72 207 147 12 112 96 88 84 86 8 214 18 7 65 159 105 221 144 186 38 163 110 11 119 248 40 243 235 241 
64 50 133 64 50 133 64 50 133 64 50 133 216 25 227 226 197 127 136 25 134 150 245 216 31 124 253 75 14 145 220 178 31 105 25 184 90 54 126 98 109 133 95 75 218 95 75 218 95 75 218 95 75 218 95 75 218 95 75 218 77 108 128 242 113 156 28 129 120 146 38 235 146 38 235 146 38 235 146 38 235 146 38 235 213 29 197 213 29 197 213 29 197 213 29 197 213 29 197 213 29 197 213 29 197 43 232 28 178 1 240 89 57 161 224 32 72 132 55 61 179 224 176 197 13 200 197 13 200 197 13 200 197 13 200 197 13 200 197 13 200 197 13 200 197 13 200 197 13 200 197 13 200 197 13 200 124 189 170 96 90 217 76 173 143 183 178 35 15 173 255 174 202 100 140 247 134 105 24 170 19 154 249 203 52 240 102 162 162 96 178 101 
64 50 133 64 50 133 64 50 133 71 131 104 203 142 235 3 220 223 24 35 181 127 77 15 69 107 230 200 48 54 81 69 231 155 155 196 10 236 85 12 195 157 95 75 218 95 75 218 95 75 218 95 75 218 95 75 218 95 75 218 95 75 218 101 156 241 100 207 179 179 233 102 146 38 235 146 38 235 146 38 235 146 38 235 146 38 235 213 29 197 213 29 197 213 29 197 213 29 197 213 29 197 213 29 197 213 29 197 75 194 54 194 64 134 99 202 93 176 200 91 57 14 64 168 43 243 199 91 26 197 13 200 197 13 200 197 13 200 197 13 200 197 13 200 197 13 200 197 13 200 158 22 213 143 74 110 216 24 140 126 124 121 222 67 163 107 128 22 122 252 252 227 216 45 21 234 196 227 34 18 25 6 88 152 107 104 166 54 140 217 40 189 
64 50 133 64 50 133 110 235 26 112 142 232 243 199 242 245 192 102 215 86 91 64 13 42 99 72 247 25 95 192 213 20 55 96 31 53 7 158 81 27 103 168 124 56 174 95 75 218 95 75 218 95 75 218 95 75 218 95 75 218 95 75 218 149 160 248 193 39 26 107 62 93 173 234 187 146 38 235 111 168 229 111 168 229 111 168 229 111 168 229 213 29 197 213 29 197 213 29 197 213 29 197 213 29 197 213 29 197 167 135 184 184 90 23 66 160 201 117 52 37 5 64 6 15 100 251 111 125 240 76 98 211 7 2 155 21 122 62 139 20 54 212 105 1 48 62 73 120 252 109 85 134 92 133 130 246 55 183 252 155 112 61 112 125 226 205 15 197 77 38 158 163 224 141 68 51 27 10 83 138 110 176 194 59 251 78 116 131 60 48 165 25 
179 238 70 212 141 4 83 232 243 143 3 171 227 148 121 59 223 244 248 118 232 200 159 182 169 195 198 175 38 27 149 119 215 132 102 245 69 196 167 67 214 117 133 19 243 95 75 218 95 75 218 95 75 218 95 75 218 95 75 218 95 75 218 52 232 80 87 84 153 14 129 110 4 153 93 111 168 229 111 168 229 111 168 229 111 168 229 111 168 229 213 29 197 213 29 197 213 29 197 213 29 197 213 29 197 213 29 197 213 29 197 6 125 185 164 82 88 125 84 15 65 77 112 224 226 65 148 134 7 0 62 54 184 85 4 127 164 2 9 232 137 53 241 97 252 208 71 88 100 113 53 236 85 132 167 61 224 53 151 181 95 141 13 83 6 151 162 199 136 251 28 136 150 215 239 235 197 166 253 147 14 46 11 132 189 83 149 157 4 255 8 141 
90 229 187 175 45 33 136 25 197 28 32 7 100 77 35 247 4 116 252 189 48 171 128 162 165 118 218 247 87 98 211 118 136 52 127 2 157 174 23 9 181 186 111 215 136 95 75 218 95 75 218 95 75 218 95 75 218 95 75 218 95 75 218 95 75 218 212 130 252 64 196 255 111 168 229 111 168 229 111 168 229 146 38 235 111 168 229 111 168 229 111 168 229 213 29 197 213 29 197 213 29 197 213 29 197 213 29 197 213 29 197 213 29 197 82 2 105 162 80 112 80 244 126 136 37 143 237 52 157 199 13 38 30 179 248 108 21 38 16 156 129 111 133 99 233 56 32 250 230 10 218 167 247 66 4 129 214 234 49 27 190 104 48 89 74 32 233 95 58 150 246 239 120 78 209 95 196 241 222 71 133 97 165 109 100 101 202 44 14 77 123 77 
168 92 237 51 250 112 157 246 208 60 184 146 47 2 39 141 143 122 241 104 92 247 75 121 56 209 180 149 1 0 246 138 190 238 233 182 219 232 57 94 111 118 1 36 203 248 188 87 95 75 218 95 75 218 95 75 218 95 75 218 95 75 218 95 75 218 17 107 28 134 239 54 111 168 229 111 168 229 243 79 24 146 38 235 146 38 235 111 168 229 111 168 229 213 29 197 213 29 197 213 29 197 213 29 197 213 29 197 213 29 197 213 29 197 153 106 183 126 210 77 77 64 173 59 9 253 213 252 75 216 91 173 138 5 78 36 116 229 242 217 118 252 33 184 232 190 190 240 7 244 91 253 156 61 133 146 187 29 32 218 152 244 235 38 201 74 148 135 57 252 95 235 53 91 218 225 159 75 101 134 179 244 229 155 81 62 169 162 116 98 132 195 
251 72 42 70 17 96 157 132 166 25 18 105 28 43 100 16 206 240 24 0 197 117 148 164 235 49 233 76 80 177 54 145 73 126 181 133 175 15 153 220 225 68 247 224 233 71 89 173 95 75 218 95 75 218 95 75 218 95 75 218 95 75 218 95 75 218 222 62 193 223 222 14 111 168 229 111 168 229 104 211 167 15 253 209 146 38 235 111 168 229 111 168 229 146 38 235 213 29 197 213 29 197 213 29 197 213 29 197 213 29 197 213 29 197 213 29 197 229 115 14 251 230 217 179 120 104 222 162 203 67 233 12 240 162 147 84 11 162 217 14 10 56 103 153 144 237 92 28 84 22 233 31 164 204 210 196 15 108 54 99 207 144 249 109 49 225 55 211 83 70 130 89 171 31 210 24 45 244 235 108 49 118 207 211 34 165 203 48 222 87 183 152 
160 18 44 4 157 162 62 103 227 76 79 152 101 79 187 171 111 23 129 4 146 241 40 216 238 41 55 160 253 120 91 163 170 206 210 54 43 200 120 175 95 243 48 10 102 182 241 41 95 75 218 95 75 218 95 75 218 95 75 218 95 75 218 95 75 218 95 75 218 154 52 34 111 168 229 111 168 229 10 247 202 167 31 112 191 216 105 111 168 229 111 168 229 146 38 235 146 38 235 213 29 197 213 29 197 213 29 197 213 29 197 213 29 197 213 29 197 213 29 197 63 238 79 146 248 130 116 170 192 35 233 65 212 88 131 229 158 189 212 141 214 40 90 109 224 83 199 240 235 62 51 200 76 49 249 147 253 179 130 170 237 108 14 151 114 202 49 129 144 97 196 220 251 235 46 78 126 2 191 100 5 119 191 17 12 22 202 139 94 16 235 236 
18 195 28 60 80 225 82 189 143 186 56 254 43 165 140 246 35 188 166 144 26 142 175 49 246 174 164 11 96 172 104 66 70 169 232 186 28 169 254 165 22 145 237 229 151 62 250 5 178 10 155 95 75 218 95 75 218 95 75 218 95 75 218 95 75 218 95 75 218 187 172 102 111 168 229 111 168 229 111 168 229 2 216 86 111 168 229 111 168 229 111 168 229 146 38 235 146 38 235 213 29 197 213 29 197 213 29 197 213 29 197 213 29 197 213 29 197 213 29 197 213 29 197 171 252 11 207 118 208 144 185 174 195 10 227 172 91 174 8 169 254 118 94 52 118 224 34 228 233 36 93 12 227 251 151 177 201 198 162 12 83 103 185 117 212 116 70 64 161 150 249 137 165 47 201 111 131 253 63 16 189 85 176 240 201 113 15 64 119 173 190 72 
45 31 116 241 57 49 2 43 168 69 161 108 120 92 104 68 26 186 179 117 166 45 62 203 229 195 229 83 135 19 159 167 156 9 102 200 100 42 116 93 22 192 120 104 54 224 55 116 15 90 146 95 75 218 95 75 218 95 75 218 95 75 218 95 75 218 95 75 218 95 75 218 131 18 241 111 168 229 111 168 229 111 168 229 111 168 229 111 168 229 138 251 176 146 38 235 146 38 235 146 38 235 213 29 197 213 29 197 213 29 197 213 29 197 213 29 197 213 29 197 213 29 197 210 126 153 6 222 128 195 177 82 122 57 159 117 231 190 118 228 217 11 134 205 43 53 125 71 17 15 30 222 128 78 165 19 247 159 20 65 1 222 109 115 198 153 158 95 212 222 91 165 120 129 102 1 105 183 170 50 173 209 234 190 114 130 84 85 131 196 128 27 
214 245 109 177 11 183 229 43 244 147 100 227 83 21 202 131 193 72 101 212 115 11 68 200 133 236 0 238 65 111 156 27 100 251 17 144 201 28 107 146 76 172 201 117 245 237 208 195 43 37 172 213 108 234 95 75 218 95 75 218 95 75 218 95 75 218 95 75 218 95 75 218 184 170 250 111 168 229 111 168 229 111 168 229 111 168 229 175 245 37 127 19 142 146 38 235 146 38 235 146 38 235 146 38 235 213 29 197 213 29 197 213 29 197 213 29 197 213 29 197 213 29 197 213 29 197 57 127 57 22 194 115 236 201 153 239 58 217 122 115 186 168 143 241 43 139 201 222 169 73 41 89 97 27 179 87 63 145 182 176 182 124 119 103 42 83 37 191 156 201 148 213 113 68 86 240 236 97 51 242 78 203 19 180 191 38 121 254 32 212 69 207 
14 56 185 14 23 177 65 197 223 124 252 226 241 66 163 216 46 82 4 241 215 49 250 128 86 200 231 210 19 71 176 219 81 48 167 128 219 100 30 150 164 9 235 94 70 98 88 242 108 200 154 170 146 222 95 75 218 95 75 218 95 75 218 95 75 218 95 75 218 95 75 218 226 115 189 11 66 93 14 207 91 105 33 198 54 105 53 88 72 141 49 9 176 122 130 39 146 38 235 146 38 235 146 38 235 146 38 235 213 29 197 213 29 197 213 29 197 213 29 197 213 29 197 213 29 197 213 29 197 120 187 45 8 64 49 218 98 73 18 17 29 52 142 201 34 144 235 75 227 4 91 205 47 191 138 29 160 2 240 199 201 183 110 204 247 163 97 97 109 12 202 4 164 149 248 24 72 43 203 143 76 183 110 239 20 201 191 112 193 65 153 193 
